<?xml version="1.0" standalone="no"?>
<!DOCTYPE svg PUBLIC "-//W3C//DTD SVG 1.1//EN" "http://www.w3.org/Graphics/SVG/1.1/DTD/svg11.dtd" >
<svg xmlns="http://www.w3.org/2000/svg">
<metadata>
Created by FontForge 20120731 at Tue Dec 29 22:38:54 2015
 By Ads
</metadata>
<defs>
<font id="iconfont" horiz-adv-x="1024" >
  <font-face 
    font-family="iconfont"
    font-weight="500"
    font-stretch="normal"
    units-per-em="1024"
    panose-1="2 0 6 3 0 0 0 0 0 0"
    ascent="896"
    descent="-128"
    x-height="792"
    bbox="0 -212 2022.5 896"
    underline-thickness="50"
    underline-position="-100"
    unicode-range="U+0078-E620"
  />
<missing-glyph horiz-adv-x="374" 
d="M34 0v682h272v-682h-272zM68 34h204v614h-204v-614z" />
    <glyph glyph-name=".notdef" horiz-adv-x="374" 
d="M34 0v682h272v-682h-272zM68 34h204v614h-204v-614z" />
    <glyph glyph-name=".null" horiz-adv-x="0" 
 />
    <glyph glyph-name="nonmarkingreturn" horiz-adv-x="341" 
 />
    <glyph glyph-name="x" unicode="x" horiz-adv-x="1001" 
d="M281 543q-27 -1 -53 -1h-83q-18 0 -36.5 -6t-32.5 -18.5t-23 -32t-9 -45.5v-76h912v41q0 16 -0.5 30t-0.5 18q0 13 -5 29t-17 29.5t-31.5 22.5t-49.5 9h-133v-97h-438v97zM955 310v-52q0 -23 0.5 -52t0.5 -58t-10.5 -47.5t-26 -30t-33 -16t-31.5 -4.5q-14 -1 -29.5 -0.5
t-29.5 0.5h-32l-45 128h-439l-44 -128h-29h-34q-20 0 -45 1q-25 0 -41 9.5t-25.5 23t-13.5 29.5t-4 30v167h911zM163 247q-12 0 -21 -8.5t-9 -21.5t9 -21.5t21 -8.5q13 0 22 8.5t9 21.5t-9 21.5t-22 8.5zM316 123q-8 -26 -14 -48q-5 -19 -10.5 -37t-7.5 -25t-3 -15t1 -14.5
t9.5 -10.5t21.5 -4h37h67h81h80h64h36q23 0 34 12t2 38q-5 13 -9.5 30.5t-9.5 34.5q-5 19 -11 39h-368zM336 498v228q0 11 2.5 23t10 21.5t20.5 15.5t34 6h188q31 0 51.5 -14.5t20.5 -52.5v-227h-327z" />
    <glyph glyph-name="uniE600" unicode="&#xe600;" horiz-adv-x="1000" 
d="M515 754q-89 0 -169.5 -34.5t-139 -93t-93.5 -139.5t-35 -170t35 -170t93.5 -139.5t139 -93t169.5 -34.5t170 34.5t139.5 93t93 139.5t34.5 170t-34.5 170t-93 139.5t-139.5 93t-170 34.5zM729 374l-204 -204q-1 -2 -2.5 -3t-3 -1.5t-3.5 -1t-3.5 -1t-3.5 -0.5q-5 0 -9 2
t-7 5l-192 204q-4 4 -5.5 10t0.5 11.5t6 9.5q7 7 16 6.5t15 -6.5l177 -188l187 188q7 7 16 7t15.5 -7t6.5 -16t-6 -15z" />
    <glyph glyph-name="uniE601" unicode="&#xe601;" horiz-adv-x="1000" 
d="M514 693q-98 0 -181 -48t-131 -131t-48 -180.5t48 -180.5t131 -131.5t181 -48.5q59 0 114 18.5t99 51.5t77.5 77.5t51.5 99.5t18 113q0 74 -28.5 140.5t-76.5 114.5t-115 76.5t-140 28.5zM706 179l-32 -32q-13 -13 -32 -13t-32 13l-97 97l-97 -97q-9 -9 -20 -12t-22.5 0
t-19.5 12l-31 31q-13 12 -13 30.5t13 30.5l97 98l-96 96q-13 13 -13 32t13 32l32 32q13 13 31.5 13t31.5 -13l97 -97l85 85q13 13 31 13t31 -13l31 -30q6 -7 9.5 -15t3.5 -16.5t-3.5 -16.5t-9.5 -14l-86 -86l98 -97q8 -8 11 -20t0 -23.5t-11 -19.5z" />
    <glyph glyph-name="uniE602" unicode="&#xe602;" 
d="M151 663q120 119 288 144q51 7 101.5 4t98.5 -15t93.5 -34t86.5 -52q82 -62 133.5 -149t66.5 -188q15 -103 -12 -202.5t-85 -177.5t-146 -131.5t-191 -68.5q-88 -12 -175.5 5.5t-162.5 63.5q-13 8 -17 22.5t4 27.5t23 17t28 -4q134 -82 289 -59q118 16 210 89t135.5 181
t26.5 226q-12 87 -56.5 161.5t-114.5 127.5q-47 35 -100.5 56.5t-110 28t-114.5 -1.5q-118 -17 -210 -89.5t-135.5 -181t-26.5 -226.5q13 -94 64 -174q9 -12 5.5 -27t-15.5 -23q-9 -6 -18.5 -6t-18.5 4t-14 13q-60 93 -76 203q-7 51 -4 101.5t15 98.5t34 93.5t52 86.5
q23 30 49 56zM151 663zM567 305l158 157q11 11 11 26t-10 26q-7 7 -16.5 9.5t-19 0t-16.5 -9.5l-158 -157l-156 157q-11 10 -26 10t-26 -10.5t-11 -25.5t11 -26l156 -156l-157 -155q-7 -7 -10 -16.5t-0.5 -19t9.5 -16.5q4 -4 8 -6.5t9 -3.5t9.5 -1t9 1t9 3.5t7.5 6.5
l157 155l159 -159q10 -11 25.5 -11t26 11t10.5 26t-11 26zM567 305z" />
    <glyph glyph-name="uniE603" unicode="&#xe603;" 
d="M851 730l-339 -339l-339 339q-19 19 -45.5 19t-45.5 -19t-19 -45.5t19 -45.5l339 -339l-339 -339q-12 -13 -16.5 -29.5t0 -33t16.5 -28.5q19 -19 45.5 -19t45.5 19l339 339l339 -339q19 -19 45.5 -19t45.5 19t19 45.5t-19 45.5l-339 339l339 339q19 19 19 45.5t-19 45.5
q-12 12 -28.5 16.5t-33 0t-29.5 -16.5z" />
    <glyph glyph-name="uniE604" unicode="&#xe604;" horiz-adv-x="1025" 
d="M963 361h-390v390q0 25 -18 43t-43 18t-43 -18t-18 -43v-390h-390q-25 0 -43 -18t-18 -43t18 -43t43 -18h390v-390q0 -16 8 -30t22.5 -22.5t30.5 -8.5q25 0 43 18t18 43v390h390q16 0 30 8t22.5 22.5t8.5 30.5q0 13 -4.5 24.5t-13 19.5t-19.5 12.5t-24 4.5z" />
    <glyph glyph-name="uniE605" unicode="&#xe605;" horiz-adv-x="1028" 
d="M514 747q-91 0 -174 -35.5t-143 -95.5t-95.5 -143t-35.5 -174.5t35.5 -174.5t95.5 -143t143 -95.5t174 -35.5t174 35.5t143 95.5t95.5 143t35.5 175q0 73 -22.5 141.5t-64 123.5t-96.5 96.5t-123.5 64t-141.5 22.5zM734 345l-187 -236q-18 -20 -33 -20q-13 0 -33 20
l-187 236q-2 4 -3 8.5t-1 8.5q0 11 5 20q3 4 6 7t7 5.5t9 4t9 1.5h376q20 0 31 -18q3 -6 4.5 -12t0.5 -12.5t-4 -12.5z" />
    <glyph glyph-name="uniE606" unicode="&#xe606;" 
d="M512 716q-113 0 -209 -55.5t-151.5 -151.5t-55.5 -208q0 -85 33 -162t88.5 -132.5t132.5 -88.5t162 -33q113 0 208.5 55.5t151 151.5t55.5 208.5t-55.5 208.5t-151 151.5t-208.5 55.5zM744 117q10 -10 10 -24.5t-10 -24.5t-25 -10q-4 0 -8.5 1t-8.5 3.5t-7 5.5l-183 183
l-184 -183q-10 -10 -24 -10t-25 10q-10 10 -10 24.5t10 24.5l184 184l-184 183q-10 10 -10 24.5t10.5 24.5t24.5 10t24 -10l184 -183l183 183q10 10 24.5 10t24.5 -10t10 -24.5t-10 -24.5l-183 -183z" />
    <glyph glyph-name="uniE607" unicode="&#xe607;" 
d="M439 126q25 -2 44 14l5 2l-137 136l-1 -4q-4 -4 -6.5 -8t-4 -8.5t-2.5 -9t-1.5 -9.5t-0.5 -10l-48 -152zM934 680l-45 45q-18 18 -44.5 18t-44.5 -18l-44 -44l135 -134l43 43q12 13 16.5 29t0 32.5t-16.5 28.5zM844 501l-134 134l-312 -312l135 -134zM828 -80h-698v698
h445v61h-443q-26 0 -44.5 -18.5t-18.5 -44.5v-696q0 -26 18.5 -44.5t44.5 -18.5h696q18 0 32.5 8.5t23 23t8.5 31.5v443h-64v-443z" />
    <glyph glyph-name="uniE608" unicode="&#xe608;" 
d="M0 -212v1024h654v-57h-597v-910h910v597h57v-654h-1024zM948 615l-121 121l40 40q8 7 18 11t22.5 3t28 -9.5t32.5 -24.5q21 -22 29 -42t4.5 -34t-13.5 -25zM344 253l121 -121l-181 -60zM907 575l-402 -403l-121 121l403 402z" />
    <glyph glyph-name="uniE609" unicode="&#xe609;" 
d="M913 583h-236l-7 3l-87 87h-141l-104 -88q-1 -1 -2.5 -1.5t-3.5 -0.5h-223q-11 0 -11 10q0 4 3 7t8 3h219l103 88l7 2h149l7 -3l87 -87h232q2 0 4 -1t3 -2t2 -3t1 -4q0 -5 -3 -7.5t-7 -2.5zM770 -83h-515q-22 0 -37 15t-15 37v513q0 10 10 10q4 0 7 -3t3 -7v-513
q0 -7 2.5 -12.5t7 -10t10 -7t12.5 -2.5h515q9 0 16 4t11.5 11.5t4.5 16.5v513q0 2 0.5 4t2 3t3.5 2t4 1t4 -1t3 -2t2 -3t1 -4v-513q0 -22 -15 -37t-37 -15zM404.5 25q-2.5 0 -5 1t-4 3.5t-1.5 5.5v447q0 10 10.5 10t10.5 -10v-447q0 -3 -1.5 -5.5t-4 -3.5t-5 -1zM620 25
q-4 0 -7 3t-3 7v447q0 4 3 7t7.5 3t7.5 -3t3 -7v-447q0 -2 -1 -4t-2.5 -3.5t-3 -2t-4.5 -0.5z" />
    <glyph glyph-name="uniE60A" unicode="&#xe60a;" 
d="M606 300l378 378q13 12 17.5 29.5t0 34.5t-17.5 30t-30 17.5t-34.5 0t-29.5 -17.5l-378 -378l-378 378q-19 20 -46.5 20t-47.5 -20t-20 -47.5t20 -46.5l378 -378l-378 -378q-20 -19 -20 -46.5t20 -47t47.5 -19.5t46.5 19l378 378l378 -378q4 -5 10 -8.5t12 -6t12 -4
t12.5 -1.5t13 1.5t12.5 4t11.5 6t10.5 8.5q20 19 20 47t-20 47z" />
    <glyph glyph-name="uniE60B" unicode="&#xe60b;" 
d="M512 -212q-31 0 -52.5 21.5t-21.5 52.5v876q0 31 21.5 52.5t52.5 21.5q7 0 13.5 -1t12.5 -3.5t11.5 -5.5t10 -7t9 -9t7.5 -10.5t5.5 -11.5t3.5 -12.5t1 -13.5v-876q0 -31 -21.5 -52.5t-52.5 -21.5zM0 300q0 31 21.5 52.5t52.5 21.5h876q31 0 52.5 -21.5t21.5 -52.5
q0 -20 -10 -37t-27 -27t-37 -10h-876q-31 0 -52.5 21.5t-21.5 52.5z" />
    <glyph glyph-name="uniE60C" unicode="&#xe60c;" 
d="M814 509h-604q-4 0 -7 2t-5 5.5t-2 7.5q0 6 4 10.5t10 4.5h604q4 0 7 -2t5 -5.5t2 -7.5q-2 -13 -14 -15zM601 515q-3 16 -11.5 29.5t-20 23t-26.5 15t-31 5.5q-32 0 -57.5 -20.5t-31.5 -52.5l-29 6q6 27 23 49t42 34.5t53 12.5q43 0 76 -27t42 -69zM708 -51h-392
q-17 0 -29.5 12.5t-13.5 30.5l-30 504q-1 6 3 10.5t10 4.5q3 0 6 -1t5 -2.5t3.5 -4.5t1.5 -6l30 -503q0 -7 4.5 -11.5t9.5 -4.5h392q5 0 9.5 4.5t4.5 11.5l30 503q1 6 5.5 10t10.5 4q4 0 7 -2t5 -5.5t1 -7.5l-30 -504q0 -5 -1.5 -10t-3.5 -9t-5 -8t-7 -7l-8 -4
q-4 -3 -8.5 -4t-9.5 -1zM402 56q-6 0 -10 4t-5 10l-19 346q0 6 4 10.5t10 4.5q2 1 5 0t5 -3t3.5 -4.5t1.5 -5.5l19 -347q0 -3 -1 -5.5t-2.5 -4.5t-4 -3.5t-5.5 -1.5h-1v0zM622 56h-1q-6 0 -10 4.5t-3 10.5l19 347q0 6 4.5 10t10.5 3q3 0 6 -1t4.5 -3.5t2.5 -5t1 -5.5
l-19 -346q0 -4 -2.5 -7t-5.5 -5t-7 -2zM512 56q-6 0 -10.5 4t-4.5 10v347q0 6 4.5 10t10.5 4q4 0 7.5 -2t5.5 -5t2 -7v-347q0 -2 -1 -3.5t-1.5 -3t-2 -3t-3 -2.5t-3.5 -1.5t-4 -0.5z" />
    <glyph glyph-name="uniE60D" unicode="&#xe60d;" 
d="M1024 236h-448v-448h-128v448h-448v128h448v448h128v-448h448v-128z" />
    <glyph glyph-name="uniE60E" unicode="&#xe60e;" 
d="M816.5 438q-11.5 0 -19.5 -8t-8 -20v-484q0 -11 -3 -21.5t-8.5 -20t-13 -17t-17 -13t-20 -8.5t-21.5 -3h-332q-35 0 -59 24.5t-24 58.5v484q0 12 -8 20t-19.5 8t-20 -8t-8.5 -20v-484q0 -69 56 -111q38 -27 83 -27h332q37 0 69 18.5t50.5 50.5t18.5 69v484q0 12 -8 20
t-19.5 8zM429 -74v387q0 8 -3.5 14.5t-10 10t-14.5 3.5q-11 0 -19 -8t-8 -20v-387q0 -11 8 -19t19.5 -8t19.5 8t8 19zM567 -74v387q0 12 -8 20t-19 8q-21 0 -27 -20q-1 -4 -1 -8v-387q0 -11 8 -19t20 -8q20 0 26 20q1 4 1 7zM706 -74v387q0 12 -8.5 20t-19.5 8
q-7 0 -13.5 -3.5t-10.5 -10t-4 -14.5v-387q0 -11 8.5 -19t19.5 -8q8 0 14 3.5t10 10t4 13.5zM895 661l-13 54q-9 33 -38.5 50.5t-62.5 9.5l-215 -54l-7 28q-8 33 -37.5 51t-62.5 9.5t-51 -38t-10 -62.5l8 -28l-215 -54q-22 -5 -38 -20.5t-22 -37t-1 -42.5l14 -54
q3 -11 12.5 -17t21.5 -3l697 174q11 3 17 13t3 21zM472 756q11 3 21 -3t13 -17l7 -28l-54 -14l-7 28q-3 11 3 21t17 13zM191 513l-7 27q-2 7 0 14.5t7.5 12.5t12.5 7l590 147q8 2 15 0t12 -7.5t7 -12.5l7 -27z" />
    <glyph glyph-name="uniE60F" unicode="&#xe60f;" 
d="M562 76h-100v174h-174v100h174v174h100v-174h174v-100h-174v-174zM66 300q0 -73 22.5 -141t63.5 -123t96 -96t123 -63.5t141 -22.5q91 0 173.5 35t142.5 95t95 142.5t35 173.5t-35 173.5t-95 142.5t-142.5 95t-173.5 35q-73 0 -141 -22.5t-123 -63.5t-96 -96t-63.5 -123
t-22.5 -141z" />
    <glyph glyph-name="uniE610" unicode="&#xe610;" 
d="M512 -212q139 0 257 68.5t186.5 186.5t68.5 257t-68.5 257t-186.5 186.5t-257 68.5t-257 -68.5t-186.5 -186.5t-68.5 -257t68.5 -257t186.5 -186.5t257 -68.5zM256 321h512v-42h-512v42z" />
    <glyph glyph-name="uniE611" unicode="&#xe611;" 
d="M343 269q-1 -2 -1 -3l-45 -165q-4 -15 7 -27q3 -3 6 -4.5t6.5 -2.5t7.5 -1h4q2 0 3 1l164 45v-1h1q3 0 5 2l438 438q20 21 20 51q0 16 -6.5 31.5t-18.5 27.5l-42 42q-25 25 -60 25q-7 0 -14 -1t-13.5 -3.5t-12 -6.5t-10.5 -9l-438 -438q0 -1 -1 -1zM896 594l-43 -43
l-71 72l43 42q3 4 8 5t10.5 -1t9.5 -6l41 -41q3 -3 5 -7.5t2 -8.5q-1 -7 -5 -12zM421 262l316 316l71 -72l-315 -315zM364 134l23 83l61 -60zM924 421q-8 0 -15 -4t-11 -11t-4 -16v-408q0 -6 -2 -12t-6 -11t-8.5 -8.5t-10.5 -5.5t-12 -2h-691q-16 0 -27.5 11.5t-11.5 27.5
v667q0 16 11.5 27t27.5 11h445q5 0 9.5 2t8 4.5t6.5 6.5t4.5 8.5t1.5 9.5q0 4 -1 8t-3 7t-5 6t-6 5t-7 3t-8 1h-450q-39 0 -66.5 -28t-27.5 -67v-676q0 -39 27.5 -66.5t66.5 -27.5h700q39 0 67 27.5t28 66.5v414q0 12 -9 21t-21 9z" />
    <glyph glyph-name="uniE612" unicode="&#xe612;" horiz-adv-x="1366" 
d="M683 812q-188 0 -332 -122q-136 -116 -171 -291q-9 -49 -9 -99q0 -104 40.5 -199t109 -163.5t163.5 -109t199 -40.5t198.5 40.5t163 109t109.5 163.5t41 199t-41 199t-109.5 163.5t-163 109t-198.5 40.5zM683 -158q-93 0 -178 36.5t-146.5 97.5t-97.5 146t-36 178t36 178
t97.5 146t146.5 97.5t178 36.5t177.5 -36.5t146 -97.5t98 -146t36.5 -178t-36.5 -178t-98 -146t-146 -97.5t-177.5 -36.5zM876 336h-386q-11 0 -19 -11.5t-8 -23.5q0 -4 0.5 -7.5t2 -7t3 -6.5t4 -6t5 -5t5.5 -3t7 -1h386q4 0 8 2t7.5 6t6 8.5t4 9.5t1.5 10q0 7 -3.5 15.5
t-10 14t-13.5 5.5zM876 336z" />
    <glyph glyph-name="uniE613" unicode="&#xe613;" 
d="M512 737q-89 0 -170 -34.5t-139.5 -93t-93 -139.5t-34.5 -170t34.5 -170t93 -139.5t139.5 -93t170 -34.5t170 34.5t139.5 93t93 139.5t34.5 170t-34.5 170t-93 139.5t-139.5 93t-170 34.5zM743 101l-32 -32l-199 199l-199 -199l-32 32l199 199l-199 199l32 32l199 -199
l199 199l32 -32l-199 -199z" />
    <glyph glyph-name="uniE614" unicode="&#xe614;" 
d="M512 716q-113 0 -209 -55.5t-151.5 -151.5t-55.5 -208q0 -85 33 -162t88.5 -132.5t132.5 -88.5t162 -33q113 0 208.5 55.5t151 151.5t55.5 208.5t-55.5 208.5t-151 151.5t-208.5 55.5zM744 117q10 -10 10 -24.5t-10 -24.5t-25 -10q-4 0 -8.5 1t-8.5 3.5t-7 5.5l-183 183
l-184 -183q-10 -10 -24 -10t-25 10q-10 10 -10 24.5t10 24.5l184 184l-184 183q-10 10 -10 24.5t10.5 24.5t24.5 10t24 -10l184 -183l183 183q10 10 24.5 10t24.5 -10t10 -24.5t-10 -24.5l-183 -183z" />
    <glyph glyph-name="uniE615" unicode="&#xe615;" 
d="M512 836q-92 0 -176 -35.5t-144.5 -96t-96 -144.5t-35.5 -176t35.5 -176t96 -144.5t144.5 -96t176 -35.5t176 35.5t144.5 96t96 144.5t35.5 176t-35.5 176t-96 144.5t-144.5 96t-176 35.5zM706 376q0 -7 -3.5 -12.5t-9 -8.5t-11.5 -3h-138v-138q0 -5 -2 -9.5t-5 -7.5
t-7.5 -5t-9.5 -2h-16q-3 0 -6.5 1t-6 2.5t-4.5 3.5t-4 5t-2.5 6t-0.5 6v138h-138q-6 0 -11.5 3t-9 8.5t-3.5 12.5v16q0 7 3.5 12.5t9 8.5t11.5 3h138v138q0 10 7 17t17 7h16q7 0 12.5 -3.5t8.5 -9t3 -11.5v-138h138q10 0 17 -7t7 -17v-16z" />
    <glyph glyph-name="uniE616" unicode="&#xe616;" horiz-adv-x="1174" 
d="M1068 521l-40 -40q17 -42 26.5 -86.5t9.5 -91.5q0 -74 -23 -143.5t-65 -125.5t-98 -98t-125 -64.5t-144 -22.5q-46 0 -91 9t-85.5 26t-77 42t-67 55.5t-55.5 67.5t-42 77t-26.5 85t-9.5 92q0 92 36 176.5t97 145t145 96.5t176 36q52 0 101.5 -11.5t94.5 -33.5l40 40
q-111 59 -236 59q-187 0 -329 -122q-136 -116 -169 -290q-9 -48 -9 -96q0 -103 40 -197.5t108 -162t162 -108t197 -40.5q83 0 160.5 25.5t140 72.5t109.5 109.5t72.5 140t25.5 160.5q0 113 -49 218zM892 615l-41 34l-368 -422l41 -34zM422 36l185 89l-124 102zM565 159
l42 -34l367 422l-41 34zM1035 738q-26 21 -59.5 18.5t-54.5 -27.5l-53 -60l41 -34l42 -34l41 -34l52 60q22 25 19.5 57.5t-28.5 53.5zM968 621l-41 34l35 40l41 -34z" />
    <glyph glyph-name="uniE617" unicode="&#xe617;" 
d="M511 -147q-91 0 -173.5 35.5t-142.5 95.5t-95.5 142.5t-35.5 173.5q0 92 36 175.5t97 144t146 95t177 33.5q121 -3 222.5 -64.5t159.5 -164.5t57 -223q0 -90 -36 -172t-96 -141.5t-142.5 -94.5t-173.5 -35zM512 240q-164 159 -187 181q-15 16 -30.5 16.5t-32.5 -16.5
q-27 -29 0 -55q8 -9 18.5 -19t22 -20.5t19.5 -18.5q22 -22 160 -158q9 -9 19 -12t20 0t19 12q9 8 31.5 30t34.5 34q9 8 17 16l17 18q10 9 17 15.5t18 17.5l16 16q5 5 17.5 17t16.5 16t18 17.5t16 16.5q17 17 16 34t-20 32q-12 8 -25.5 8t-23.5 -9q-12 -11 -21.5 -20.5
t-20.5 -20t-21 -20.5t-21.5 -21t-22 -21t-21.5 -22l-22 -21q-10 -10 -22.5 -22t-21.5 -21z" />
    <glyph glyph-name="uniE618" unicode="&#xe618;" 
d="M528 839q-90 0 -171 -35t-139.5 -93.5t-93.5 -139.5t-35 -170t35 -170.5t93.5 -140t139.5 -93t170.5 -34.5t170.5 34.5t139.5 93t93.5 140t35 170.5q0 71 -22.5 138t-63 120.5t-94 94.5t-120.5 63t-138 22zM720 373h-164v-165q0 -11 -8.5 -19.5t-19.5 -8.5t-19.5 8.5
t-8.5 19.5v165h-164q-4 0 -8.5 1.5t-7.5 4t-5.5 6t-4 7.5t-1.5 8.5t1.5 8.5t4 7.5t5.5 6t7.5 4t8.5 1.5h164v166q0 12 8.5 20t19.5 8t19.5 -8t8.5 -20v-166h164q7 0 13.5 -3.5t10 -10t3.5 -13.5q0 -12 -8 -20t-19 -8z" />
    <glyph glyph-name="uniE619" unicode="&#xe619;" horiz-adv-x="2048" 
d="M1024 -111q-34 0 -51 17l-922 819q-25 26 -25 60t25 60q14 27 53.5 34t66.5 -17l853 -768l853 768q26 25 60 25t60 -25q7 -7 12.5 -15.5t8.5 -17.5t4 -18t0 -18t-4 -18t-8.5 -17t-12.5 -16l-922 -836q-11 -11 -22.5 -14t-28.5 -3z" />
    <glyph glyph-name="uniE61A" unicode="&#xe61a;" 
d="M64 832v-896h895v896h-895zM896 0h-767v767h767v-767zM649 566l-318 -318q-9 -9 -8.5 -22t9.5 -22.5t22 -9.5t22 8l319 319q5 6 7 14t-0.5 16t-8.5 14t-14 8.5t-16 0.5t-14 -8zM695 248l-319 318q-9 9 -22 8.5t-22 -9.5t-9.5 -22t8.5 -22l318 -319q6 -5 14 -7t16 0.5
t14 8.5q10 9 10 22t-8 22z" />
    <glyph glyph-name="uniE61B" unicode="&#xe61b;" 
d="M1022 451h-443v443h-101v-443h-476v-101h476v-476h101v476h443v101z" />
    <glyph glyph-name="uniE61C" unicode="&#xe61c;" 
d="M80 470l-11 -30q-17 -66 29 -113q22 -21 48.5 -47t70.5 -67.5t85.5 -78t83 -70.5t74.5 -54t49 -20q51 0 178.5 106.5t253.5 251.5q2 4 4.5 9.5t7.5 21.5t6.5 30t-2.5 31.5t-16 29.5q-12 -11 -33.5 -29.5t-80.5 -65.5t-110.5 -83t-110.5 -66t-94 -30q-23 -1 -59.5 14
t-76 39t-82 53.5t-80.5 58.5t-68.5 53.5t-47.5 39.5zM80 778q-2 -3 -4.5 -9t-7 -23t-4.5 -33.5t8 -38t26 -38.5q28 -28 61.5 -60.5t90 -85t104 -92.5t92 -70t63.5 -30q51 0 178.5 106.5t253.5 252.5q1 1 1.5 2.5t3 7.5t4.5 12t4.5 14.5t4 16.5t1.5 17.5t-2 18t-6 17
t-11 15.5q-4 -4 -11 -10t-28.5 -24.5t-44 -36.5t-54 -42.5t-61 -45.5t-63 -42.5t-62.5 -37t-57 -25.5t-48 -10q-23 -1 -59.5 14t-76 39t-82 53.5t-80.5 59t-68.5 53.5t-47.5 39z" />
    <glyph glyph-name="uniE61D" unicode="&#xe61d;" 
d="M511 768q-104 0 -192 -51.5t-139.5 -139.5t-51.5 -192t51.5 -192t139.5 -139.5t192 -51.5t192 51.5t139.5 139.5t51.5 192q0 78 -30.5 148.5t-81.5 122t-122 82t-149 30.5zM667 267q5 -5 7 -12t0 -14.5t-7 -12.5q-4 -4 -9 -6t-10 -2q-12 0 -20 8l-117 118l-118 -116
q-3 -3 -6 -5t-6.5 -2.5t-6.5 -0.5q-12 0 -20 8t-8 19t9 19l117 117l-117 118q-8 8 -8 19t8 19t19.5 8t19.5 -8l117 -118l118 117q8 8 19.5 8t19.5 -8t8 -19.5t-8 -19.5l-118 -116z" />
    <glyph glyph-name="uniE61E" unicode="&#xe61e;" 
d="M511 767q-104 0 -192 -51.5t-139 -139.5t-51 -191.5t51 -191.5t139 -139.5t192 -51.5t192 51.5t139.5 139.5t51.5 191.5t-51.5 191.5t-139.5 139.5t-192 51.5zM767 360h-232v-232h-47v232h-233v48h233v233h47v-233h232v-48z" />
    <glyph glyph-name="uniE61F" unicode="&#xe61f;" 
d="M512 896q-70 0 -136 -18.5t-122.5 -51.5t-103.5 -80t-80 -103.5t-51.5 -122.5t-18.5 -136q0 -104 40.5 -199t109 -163.5t163.5 -109t199 -40.5t199 40.5t163.5 109t109 163.5t40.5 199t-40.5 199t-109 163.5t-163.5 109t-199 40.5zM840 384q0 -9 -2.5 -16.5t-6.5 -14.5
t-9.5 -12.5t-12 -9.5t-14.5 -6t-16 -2h-206v-206q0 -12 -4.5 -23.5t-13 -19.5t-19.5 -13t-24 -5q-25 0 -43 18t-18 43v206h-206q-12 0 -23.5 4.5t-19.5 13t-13 19.5t-5 24q0 17 8.5 31t22.5 22t30 8h206v206q0 25 18 43t43 18q17 0 31 -8.5t22 -22.5t8 -30v-206h206
q8 0 16 -2t14.5 -6t12 -9.5t9.5 -12.5t6.5 -14.5t2.5 -16.5v0z" />
    <glyph glyph-name="uniE620" unicode="&#xe620;" 
d="M515 667q-118 0 -201 -83t-83 -200.5t83 -200.5t200.5 -83t200.5 83t83 201q0 57 -22.5 109.5t-60.5 90.5t-90.5 60.5t-109.5 22.5zM652 269l-23 -22l-114 114l-115 -114l-23 22l115 115l-115 114l23 23l115 -115l114 115l23 -23l-115 -114z" />
  </font>
</defs>
</svg>
